<?xml version="1.0" standalone="no"?>
<!DOCTYPE svg PUBLIC "-//W3C//DTD SVG 20010904//EN"
 "http://www.w3.org/TR/2001/REC-SVG-20010904/DTD/svg10.dtd">
<svg version="1.0" xmlns="http://www.w3.org/2000/svg"
 width="252.000000pt" height="252.000000pt" viewBox="0 0 252.000000 252.000000"
 preserveAspectRatio="xMidYMid meet">
<metadata>
Created by potrace 1.14, written by Peter Selinger 2001-2017
</metadata>
<g transform="translate(0.000000,252.000000) scale(0.100000,-0.100000)"
fill="#000000" stroke="none">
<path d="M1260 2270 c0 -5 9 -32 20 -60 11 -28 20 -52 20 -53 0 -1 -46 -3
-102 -3 -106 -1 -226 -27 -291 -61 -18 -10 -34 -18 -37 -18 -45 -8 -221 -143
-277 -213 -21 -26 -41 -49 -44 -52 -3 -3 -14 -21 -25 -40 -10 -19 -21 -37 -24
-40 -12 -11 -59 -127 -71 -173 -12 -50 -7 -150 9 -170 6 -8 -15 -49 -68 -129
-143 -217 -157 -352 -49 -461 26 -26 39 -34 35 -22 -12 32 -19 143 -8 125 6
-8 12 -29 15 -46 3 -17 10 -41 16 -53 7 -11 9 -21 6 -21 -16 0 46 -46 96 -71
106 -53 137 -58 88 -13 -11 10 -26 28 -31 39 -6 11 10 1 36 -22 25 -22 57 -43
71 -45 30 -6 31 -1 6 26 -10 12 -22 44 -25 71 -5 36 -4 46 3 35 6 -8 11 -22
11 -30 0 -40 93 -109 154 -115 17 -1 40 -6 51 -10 16 -7 18 -6 8 6 -16 16 -18
93 -2 84 6 -4 8 -9 5 -12 -3 -3 12 -23 34 -43 l39 -37 -22 -21 c-22 -21 -197
-112 -215 -112 -5 0 -23 -7 -41 -16 -37 -19 -63 -57 -114 -172 l-36 -82 669 0
c576 0 671 2 683 15 13 12 16 13 21 0 3 -10 20 -14 53 -13 58 0 68 5 52 24 -7
9 -8 14 -1 14 14 0 24 33 16 54 -5 14 -14 16 -39 12 -30 -6 -33 -4 -39 24 -4
23 -14 34 -38 43 -18 6 -36 10 -41 9 -4 -1 0 14 8 34 21 51 19 69 -9 84 -14 7
-27 19 -30 27 -3 8 -2 12 3 8 5 -3 11 -1 13 3 1 5 23 26 46 47 l44 39 -3 -29
c-4 -28 -32 -65 -51 -65 -4 0 -8 -4 -8 -9 0 -6 9 -9 20 -8 11 1 20 5 20 9 0 5
8 5 18 0 56 -29 152 29 177 108 11 34 8 141 -4 187 -6 21 -10 40 -10 43 0 11
-40 119 -54 146 -13 26 -13 34 -1 69 37 102 9 358 -56 510 -39 92 -62 140 -80
165 -11 15 -20 30 -20 32 0 1 51 3 113 3 108 0 115 1 202 39 103 45 276 146
319 186 26 25 28 31 22 74 -4 25 -10 46 -14 47 -4 0 -25 3 -47 6 -91 12 -424
3 -467 -12 -7 -2 -24 -6 -38 -9 -14 -2 -45 -9 -70 -16 -25 -7 -49 -13 -55 -14
-15 -3 -127 -62 -149 -79 -17 -12 -25 -11 -77 15 -35 18 -59 36 -60 46 -2 53
-8 109 -14 139 l-6 33 -129 0 c-77 0 -130 -4 -130 -10z m-716 -569 c-8 -17
-17 -39 -19 -50 -2 -11 -8 -28 -13 -38 -6 -10 -12 -31 -15 -48 -3 -16 -9 -48
-12 -70 -7 -38 -11 -64 -14 -93 0 -7 -5 -10 -11 -7 -18 11 -3 139 26 211 15
38 32 72 38 76 6 4 7 8 2 8 -5 0 -1 9 9 20 24 27 26 25 9 -9z m1442 -337 c11
-94 8 -251 -3 -240 -5 4 -9 63 -9 131 -1 68 -4 141 -8 162 -5 28 -4 34 4 21 6
-9 13 -43 16 -74z m-525 -751 c-15 -52 -14 -54 13 -49 36 6 83 33 99 57 21 29
33 5 13 -26 -16 -24 -15 -25 3 -25 11 0 24 7 29 15 7 14 11 13 30 -4 19 -16
21 -23 12 -46 -15 -40 -4 -62 41 -81 22 -11 39 -25 39 -34 0 -31 -11 -29 -50
9 -21 21 -58 43 -82 50 -24 8 -56 19 -73 26 -16 7 -48 18 -70 25 -22 7 -49 19
-61 27 -11 7 -24 11 -27 8 -4 -3 -3 0 2 6 5 6 20 17 33 23 12 6 29 24 36 40
19 38 26 26 13 -21z m390 -275 c11 -21 11 -22 -4 -9 -10 7 -17 17 -17 22 0 15
9 10 21 -13z m-3 -43 c1 -1 0 -9 -3 -16 -6 -15 -45 -24 -45 -11 0 4 -13 21
-30 38 -16 18 -26 34 -23 38 4 4 63 -24 101 -49z m115 4 c-7 -7 -19 -8 -30 -4
-17 8 -17 8 0 12 9 3 17 10 17 16 0 8 4 7 12 -1 9 -9 9 -15 1 -23z"/>
</g>
</svg>
